<svg aria-hidden="true" style="position: absolute; width: 0; height: 0; overflow: hidden;" version="1.1" xmlns="http://www.w3.org/2000/svg" xmlns:xlink="http://www.w3.org/1999/xlink">
<defs>
<symbol id="volume" viewBox="0 0 32 32">
<path fill="#fff"  d="M25.232 16c0 0.005 0 0.011 0 0.016 0 2.008-0.806 3.828-2.113 5.153l0.001-0.001c-0.165 0.158-0.39 0.255-0.637 0.255-0.51 0-0.923-0.413-0.923-0.923 0-0.241 0.092-0.46 0.244-0.625l-0.001 0.001c0.978-0.998 1.582-2.366 1.582-3.875s-0.604-2.877-1.583-3.876l0.001 0.001c-0.151-0.164-0.243-0.383-0.243-0.624 0-0.51 0.413-0.923 0.923-0.923 0.247 0 0.471 0.097 0.637 0.255l-0-0c1.306 1.324 2.112 3.144 2.112 5.152 0 0.006 0 0.011-0 0.017v-0.001zM24.939 7.019c-0.165-0.155-0.387-0.25-0.632-0.25-0.51 0-0.924 0.414-0.924 0.924 0 0.265 0.112 0.505 0.291 0.673l0 0c2.092 1.887 3.401 4.608 3.401 7.634s-1.309 5.747-3.392 7.626l-0.009 0.008c-0.173 0.168-0.281 0.403-0.281 0.663 0 0.51 0.413 0.923 0.923 0.923 0.24 0 0.458-0.091 0.622-0.241l-0.001 0.001c2.451-2.225 3.984-5.424 3.984-8.981s-1.533-6.756-3.974-8.972l-0.010-0.009zM19.691 6.696v18.608c-0.013 1.016-0.84 1.835-1.857 1.835-0.391 0-0.754-0.121-1.053-0.327l0.006 0.004-7.539-5.278h-3.402c-1.529 0-2.768-1.239-2.768-2.768v0-5.539c0-1.529 1.239-2.768 2.768-2.768h3.402l7.539-5.28c0.293-0.202 0.656-0.323 1.047-0.323 1.019 0 1.846 0.819 1.859 1.835v0.001zM8.618 12.307h-2.771c-0.51 0-0.923 0.413-0.923 0.923v0 5.539c0 0.51 0.413 0.923 0.923 0.923v0h2.768v-7.386zM17.853 25.306l-0.005-18.608-7.386 5.168v8.27l7.39 5.171z"></path>
</symbol>
</defs>
</svg>
